<svg xmlns="http://www.w3.org/2000/svg" version="1.1" xmlns:xlink="http://www.w3.org/1999/xlink" xmlns:svgjs="http://svgjs.com/svgjs" width="512" height="512" x="0" y="0" viewBox="0 0 32 32" style="enable-background:new 0 0 512 512" xml:space="preserve" class=""><g><path d="M19.4 32h-6.8C5.7 32 0 26.3 0 19.4v-6.8C0 5.7 5.7 0 12.6 0h6.8C26.3 0 32 5.7 32 12.6v6.8C32 26.3 26.3 32 19.4 32zM12.6 3C7.3 3 3 7.3 3 12.6v6.8c0 5.3 4.3 9.6 9.6 9.6h6.8c5.3 0 9.6-4.3 9.6-9.6v-6.8C29 7.3 24.7 3 19.4 3z" fill="#000000" data-original="#000000" class=""></path><path d="M20 20.3c-.3.5-.8 1-1.4 1.3s-1.4.4-2.3.4c-1.3 0-2.5-.3-3.3-1-.5-.4-.9-.9-1.2-1.5-.2-.6.2-1.2.9-1.2H14c.4 0 .7.3.9.6.1.2.2.3.3.5.3.3.6.4 1.1.4.4 0 .7-.1.9-.3s.3-.5.3-.8-.1-.6-.3-.8-.4-.4-.7-.5-.7-.3-1.2-.5c-.8-.3-1.4-.5-1.9-.8-.5-.2-.9-.6-1.2-1.1s-.5-1.1-.5-1.9c0-.7.2-1.3.5-1.9.4-.5.9-.9 1.5-1.2s1.4-.4 2.2-.4c1.3 0 2.4.3 3.2 1 .5.4.8.8 1 1.4s-.2 1.2-.9 1.2h-1.4c-.3 0-.6-.2-.8-.5-.1-.2-.2-.3-.3-.4-.2-.2-.5-.3-.9-.3-.3 0-.6.1-.8.3s-.3.4-.3.8c0 .3.1.5.3.7s.4.4.7.5.7.3 1.2.5c.8.3 1.4.5 1.9.8s.9.6 1.3 1.1.5 1.1.5 1.9c-.1.6-.3 1.1-.6 1.7z" fill="#000000" data-original="#000000" class=""></path><path d="M16 11c-.8 0-1.5-.7-1.5-1.5v-1c0-.8.7-1.5 1.5-1.5s1.5.7 1.5 1.5v1c0 .8-.7 1.5-1.5 1.5zM16 24.5c-.8 0-1.5-.7-1.5-1.5v-1.5c0-.8.7-1.5 1.5-1.5s1.5.7 1.5 1.5V23c0 .8-.7 1.5-1.5 1.5z" fill="#000000" data-original="#000000" class=""></path></g></svg>