<svg xmlns="http://www.w3.org/2000/svg" version="1.1" xmlns:xlink="http://www.w3.org/1999/xlink" xmlns:svgjs="http://svgjs.com/svgjs" width="512" height="512" x="0" y="0" viewBox="0 0 512 512" style="enable-background:new 0 0 512 512" xml:space="preserve" class=""><g><path fill="#d69451" d="M138.09 373.706h19.494v85.116H138.09z" data-original="#d69451" class=""></path><path fill="#d69451" fill-rule="evenodd" d="M99.116 359.09h68.216c9.911 0 17.995 8.084 17.995 17.995v4.499H81.856l-29.691-110.81 4.346-1.164c9.573-2.565 19.474 3.151 22.039 12.724z" data-original="#d69451" class=""></path><path fill="#3d4a75" fill-rule="evenodd" d="M249.771 387.88h40.486v60.56c0 5.71-4.672 10.381-10.381 10.381h-19.723c-5.71 0-10.381-4.672-10.381-10.381v-60.56z" data-original="#3d4a75" class=""></path><path fill="#323e66" fill-rule="evenodd" d="M270.013 387.88h20.243v60.56c0 5.71-4.672 10.381-10.381 10.381h-9.862zM395.329 387.88h40.486v60.56c0 5.71-4.671 10.381-10.381 10.381h-19.723c-5.71 0-10.381-4.672-10.381-10.381v-60.56z" data-original="#323e66" class=""></path><path fill="#3d4a75" fill-rule="evenodd" d="M415.572 387.88h20.243v60.56c0 5.71-4.671 10.381-10.381 10.381h-9.862z" data-original="#3d4a75" class=""></path><rect width="218.94" height="242.934" x="233.323" y="176.716" fill="#bba315" rx="14.8" data-original="#ee8700" class="" opacity="1"></rect><path fill="#d1ba32" fill-rule="evenodd" d="M342.793 176.716h94.67c8.14 0 14.8 6.659 14.8 14.8V404.85c0 8.14-6.66 14.8-14.8 14.8h-94.67z" data-original="#f89b00" class="" opacity="1"></path><path fill="#bba315" fill-rule="evenodd" d="M439.267 176.827c7.297.897 12.995 7.16 12.995 14.689V404.85c0 7.529-5.699 13.791-12.995 14.689z" data-original="#ee8700" class="" opacity="1"></path><path fill="#e9e9ff" fill-rule="evenodd" d="m399.778 393.129 11.203-19.404h41.282v19.404z" data-original="#e9e9ff" class=""></path><rect width="22.939" height="52.613" x="470.593" y="237.816" fill="#b54500" rx="5.811" data-original="#b54500" class=""></rect><path fill="#b54500" d="M197.864 237.816h11.318a5.813 5.813 0 0 1 5.81 5.81v40.992a5.814 5.814 0 0 1-5.811 5.811h-11.318a5.814 5.814 0 0 1-5.811-5.811v-40.992a5.814 5.814 0 0 1 5.811-5.811z" data-original="#b54500" class=""></path><path fill="#7986bf" fill-rule="evenodd" d="M40.617 440.262h29.991V210.633c0-70.048 57.419-127.466 127.468-127.466h59.606V53.176h-59.606c-86.604 0-157.459 70.856-157.459 157.457z" data-original="#7986bf" class=""></path><path fill="#525d91" fill-rule="evenodd" d="M452.263 58.423v-5.247H198.076v25.242c0 8.81 7.186 15.996 15.996 15.996h202.202c19.823 0 35.99-16.167 35.99-35.99z" data-original="#525d91" class=""></path><path fill="#5d689e" fill-rule="evenodd" d="M452.263 58.423v-5.247H210.376v14.442c0 8.81 7.186 15.996 15.996 15.996h202.202c6.12 0 11.891-1.542 16.945-4.256a35.771 35.771 0 0 0 6.745-20.934z" data-original="#5d689e" class=""></path><path fill="#525d91" fill-rule="evenodd" d="M11 458.822h89.226v-18.56c0-10.208-8.352-18.56-18.559-18.56H29.56c-10.208 0-18.56 8.352-18.56 18.56z" data-original="#525d91" class=""></path><path fill="#5d689e" fill-rule="evenodd" d="M23 458.822h77.226v-18.56c0-10.208-8.352-18.56-18.559-18.56H41.56c-10.208 0-18.56 8.352-18.56 18.56z" data-original="#5d689e" class=""></path><circle cx="432.092" cy="383.426" r="9.702" fill="#d3d3f2" transform="rotate(-13.34 431.217 383.378)" data-original="#d3d3f2" class=""></circle><g fill-rule="evenodd"><path fill="#97820a" d="M246.318 176.827c-7.297.897-12.996 7.16-12.996 14.689V404.85c0 7.529 5.699 13.791 12.996 14.689z" data-original="#e37200" class="" opacity="1"></path><path fill="#e9e9ff" d="m285.807 393.129-11.202-19.404h-41.282v19.404zM233.323 205.209h218.94v78.354c0 14.64-11.977 26.617-26.617 26.617H259.94c-14.64 0-26.617-11.978-26.617-26.617z" data-original="#e9e9ff" class=""></path><path fill="#e9e9ff" d="M342.793 205.209h109.47v78.354c0 14.64-11.977 26.617-26.617 26.617h-82.853z" data-original="#e9e9ff" class=""></path><path fill="#ffffff" d="M342.793 205.209h109.47v78.354c0 14.639-11.977 26.617-26.617 26.617h-82.853z" data-original="#ffffff" class=""></path><path fill="#e9e9ff" d="M452.263 205.209h-12.995v101.194c7.768-4.662 12.995-13.17 12.995-22.841v-78.354z" data-original="#e9e9ff" class=""></path><path fill="#d3d3f2" d="M233.323 205.209h12.996v101.194c-7.768-4.662-12.996-13.17-12.996-22.841v-78.354z" data-original="#d3d3f2" class=""></path></g><circle cx="253.494" cy="383.426" r="9.702" fill="#d3d3f2" transform="rotate(-45 253.443 383.502)" data-original="#d3d3f2" class=""></circle><path fill-rule="evenodd" d="M405.708 453.82a5.38 5.38 0 0 1-5.376-5.38v-23.791h30.489v23.791c0 2.969-2.418 5.38-5.391 5.38zm-145.56 0a5.384 5.384 0 0 1-5.376-5.38v-23.791h30.489v23.791c0 2.969-2.423 5.38-5.391 5.38zm35.113-29.171h95.07v23.791c0 1.899.356 3.699.988 5.38h-97.05c.621-1.681.992-3.481.992-5.38zm-56.94-19.8v-6.72h47.489c1.778 0 3.43-.95 4.331-2.499a5.039 5.039 0 0 0 0-5.002l-11.21-19.399a4.985 4.985 0 0 0-4.326-2.501h-36.284V306.6c5.66 5.32 13.262 8.579 21.62 8.579h165.706c8.353 0 15.95-3.26 21.61-8.579v62.128h-36.279c-1.787 0-3.439.95-4.331 2.501l-11.196 19.399a4.966 4.966 0 0 0 0 5.002 4.98 4.98 0 0 0 4.326 2.499h47.479v6.72c0 5.4-4.389 9.8-9.798 9.8H248.124c-5.405 0-9.803-4.4-9.803-9.8zm0-26.119v9.399h38.827l-5.429-9.399zm0-168.521h99.468v94.971h-69.191l4.793-8.301h52.162a5 5 0 0 0 0-10h-55.047c-1.787 0-3.435.95-4.331 2.501l-9.018 15.619c-10.608-1.37-18.836-10.459-18.836-21.439zm9.803-28.49h189.335c5.41 0 9.798 4.39 9.798 9.8v8.69H238.321v-8.69c0-5.41 4.398-9.8 9.803-9.8zm177.147 105.16h-55.043a4.99 4.99 0 0 0-4.331 2.501l-9.129 15.8h-8.98v-94.971h99.468v73.351c0 11.919-9.688 21.62-21.61 21.62H368.32l4.798-8.301h52.152a5.001 5.001 0 0 0 0-10zm21.986 101.25v-9.399h-33.389l-5.429 9.399zm-237.267-144.5v40.991a.832.832 0 0 1-.809.811h-11.316a.836.836 0 0 1-.814-.811v-40.991c0-.429.38-.809.814-.809h11.316a.83.83 0 0 1 .809.809zm278.542 0v40.991a.836.836 0 0 1-.814.811h-11.316a.836.836 0 0 1-.814-.811v-40.991c0-.429.38-.809.814-.809h11.316c.433 0 .814.38.814.809zm12.467 210.191h-61.18c.631-1.681 1.002-3.481 1.002-5.38v-24.1c9.317-1.59 16.437-9.721 16.437-19.491V224.45h12.814c3.849 0 6.99 3.138 6.99 6.989v1.381h-.66c-5.964 0-10.815 4.849-10.815 10.809v40.991c0 5.959 4.851 10.811 10.815 10.811h11.316c5.964 0 10.81-4.852 10.81-10.811v-40.991c0-5.959-4.846-10.809-10.81-10.809h-.66v-1.381c0-9.37-7.621-16.991-16.986-16.991h-12.814v-22.929c0-10.92-8.878-19.8-19.799-19.8H248.124c-10.921 0-19.804 8.88-19.804 19.8v22.929h-12.804c-9.37 0-16.995 7.621-16.995 16.991v1.381h-.655c-5.964 0-10.81 4.849-10.81 10.809v40.991c0 5.959 4.846 10.811 10.81 10.811h11.316c5.959 0 10.81-4.852 10.81-10.811v-40.991c0-5.959-4.851-10.809-10.81-10.809h-.66v-1.381c0-3.851 3.141-6.989 6.995-6.989h12.804v180.399c0 9.77 7.125 17.901 16.451 19.491v24.1c0 1.899.361 3.699.988 5.38h-61.175a5.001 5.001 0 0 0 0 10h316.414c2.76 0 5-2.241 5-5s-2.24-5-5-5zm-126.03-60.691c0-2.76-2.24-5-5-5H315.61c-2.76 0-5 2.24-5 5s2.24 5 5 5h54.359c2.76 0 5-2.239 5-5zm-73.349-19.401c0 2.76 2.23 5.002 5 5.002h72.351c2.76 0 4.995-2.241 4.995-5.002s-2.235-5-4.995-5H306.62c-2.77 0-5 2.23-5 5zm-149.038 80.091h-9.495v-67.241h9.495zM75.606 338.948v-48.271l18.677 69.701a5.004 5.004 0 0 0 4.832 3.711h68.218c6.995 0 12.718 5.558 12.983 12.489H85.689l-10.082-37.63zm-29.988 77.749V210.631c0-82.391 65.698-149.711 147.458-152.361v20c-33.35 1.249-64.624 14.911-88.537 38.83-25.108 25.101-38.934 58.32-38.934 93.531v206.068H45.618zm49.609 23.562v13.56H16.002v-13.56c0-7.48 6.079-13.56 13.561-13.56h52.104c7.476 0 13.561 6.08 13.561 13.56zM203.077 58.18h244.18v.241c0 17.088-13.898 30.989-30.985 30.989H214.07c-6.06 0-10.993-4.93-10.993-10.99zm-17.752 328.399c2.76 0 5-2.23 5-5v-4.49c0-12.679-10.314-22.999-22.993-22.999h-64.383l-19.573-73.05a22.952 22.952 0 0 0-7.77-11.912V210.63c0-66.671 53.554-121.061 119.903-122.431 3.521 6.66 10.516 11.21 18.561 11.21h202.202c22.598 0 40.986-18.379 40.986-40.988V53.18c0-2.77-2.24-5-5-5H198.077c-43.221 0-83.97 16.94-114.743 47.71-30.768 30.771-47.716 71.52-47.716 114.74v206.068h-6.055c-12.992 0-23.561 10.572-23.561 23.562v18.56a5 5 0 0 0 5 5h89.225c2.76 0 5-2.241 5-5v-18.56c0-12.99-10.574-23.562-23.561-23.562h-6.06v-39.109l1.421 5.29a4.996 4.996 0 0 0 4.827 3.7h51.237v72.241c0 2.759 2.235 5 4.995 5h19.496a5.003 5.003 0 0 0 5.001-5v-72.241z" fill="#000000" data-original="#000000" class=""></path></g></svg>