<svg xmlns="http://www.w3.org/2000/svg" version="1.1" xmlns:xlink="http://www.w3.org/1999/xlink" xmlns:svgjs="http://svgjs.com/svgjs" width="512" height="512" x="0" y="0" viewBox="0 0 511.941 511.941" style="enable-background:new 0 0 512 512" xml:space="preserve" class=""><g><path d="M444.211 180.963v97.89c0 20.38-13.69 38.25-33.39 43.5-10.66 2.83-1.92.96-79.26 15.46-25.19 3.17-50.4 4.75-75.45 4.75-.11-.04-.22-.07-.33-.1.02.03.03.06.05.1-6.56 0-13.13-.11-19.71-.33 0 0-52.56-9.79-51.91-48.08.49-28.58.25-85.95.09-113.19h259.91z" style="" fill="#516980" data-original="#516980"></path><path d="M236.121 341.013v1.22c-18.55-.61-37.15-2.08-55.74-4.42-77.34-14.5-68.6-12.63-79.26-15.46-19.7-5.25-33.39-23.12-33.39-43.5v-97.89h135v110.82c0 23.07 13.69 43.3 33.39 49.23z" style="" fill="#485c70" data-original="#485c70"></path><path d="m481.631 170.063-184.19 53.63a148.296 148.296 0 0 1-56.07 5.2c-16.423-1.631-25.29-4.74-47.31-11.15-181.79-94.17 13.91-160.74 20.28-162.87.11-.03.16-.05.16-.05a148.271 148.271 0 0 1 82.94 0l184.19 53.62c30.41 8.85 30.41 52.77 0 61.62z" style="" fill="#6a829a" data-original="#6a829a"></path><path d="m194.061 217.743-163.75-47.68c-30.41-8.85-30.41-52.77 0-61.62l184.19-53.62s-126.79 85.58-20.44 162.92z" style="" fill="#516980" data-original="#516980"></path><path d="M236.841 145.207c-5.87-6.67-17.72-7.109-24.98.58l-52.07 27.76a59.902 59.902 0 0 0-31.76 52.95v81.51c-.74 8.33 1.09 16.22 5.59 18.36 5.8 2.76 17.53-3.36 24.41-18.36v-81.51c0-11.109 6.08-21.25 15.88-26.47l62.82-33.51c5.2-6.699 4.95-15.819.11-21.31z" style="" fill="#ffcf6b" data-original="#ffcf6b"></path><ellipse cx="255.971" cy="139.258" rx="45.176" ry="30.118" style="" fill="#fcec78" data-original="#fcec78"></ellipse><path d="M143.029 304.905c20.792 0 37.647 16.855 37.647 37.647v30.235c0 16.569-13.431 30-30 30h-15.294c-16.569 0-30-13.431-30-30v-30.235c0-20.792 16.856-37.647 37.647-37.647z" style="" fill="#ffb451" data-original="#ffb451"></path><path d="M397.271 462.773s-191.97-29.27-40.64-195.33h31.67c1.26 2.32 2.33 4.77 3.17 7.35 102.21 58.24 96.71 181.78 5.8 187.98z" style="" fill="#db9e82" data-original="#db9e82"></path><path d="M397.271 462.773c-4.9.35-1.7.25-79.6.25-97.79 0-106.31-128.47-1.44-188.23.93-2.6 2.07-5.06 3.41-7.35h38.4c-17.19 26.61-81 139.95 39.23 195.33z" style="" fill="#c8866a" data-original="#c8866a"></path><path d="M397.731 222.223c-2.01 7.59-4.15 15.08-6.4 22.45-11.06 8.34-24.58 12.86-38.48 12.61-30.79-33.31 5.71-63.87 5.71-63.87 6.378 1.111 10.67 4.976 19.51 4.51 12.42-.67 23.18 11.06 19.66 24.3z" style="" fill="#db9e82" data-original="#db9e82"></path><path d="M352.851 257.283c-13.431-.244-26.24-4.961-36.48-12.61-2.25-7.37-4.39-14.86-6.4-22.45-3.52-13.24 7.25-24.98 19.66-24.3 11.892.634 15.704-6.861 28.93-4.51-7.44 13.04-17.9 38.45-5.71 63.87z" style="" fill="#c8866a" data-original="#c8866a"></path><path d="M391.505 244.673h-75.3c-8.31 0-15.05 6.74-15.05 15.06 0 8.31 6.74 15.06 15.05 15.06h75.3c8.31 0 15.06-6.75 15.06-15.06 0-8.32-6.75-15.06-15.06-15.06z" style="" fill="#2ecefb" data-original="#2ecefb"></path><path d="m163.714 208.914 50.788 14.786a148.242 148.242 0 0 0 82.937 0l12.096-3.521M52.677 101.942l-22.368 6.512c-30.411 8.854-30.411 52.768 0 61.621l103.736 30.201M383.914 198.524l97.719-28.449c30.411-8.854 30.411-52.768 0-61.621L297.439 54.83a148.242 148.242 0 0 0-82.937 0L82.794 93.174" style="stroke-width:15;stroke-linecap:round;stroke-linejoin:round;stroke-miterlimit:10;" fill="none" stroke="#000000" stroke-width="15" stroke-linecap="round" stroke-linejoin="round" stroke-miterlimit="10" data-original="#000000"></path><ellipse cx="255.971" cy="139.265" rx="45.176" ry="30.118" style="stroke-width:15;stroke-linecap:round;stroke-linejoin:round;stroke-miterlimit:10;" fill="none" stroke="#000000" stroke-width="15" stroke-linecap="round" stroke-linejoin="round" stroke-miterlimit="10" data-original="#000000"></ellipse><path d="m236.735 166.524-62.823 33.506a29.946 29.946 0 0 0-15.883 26.471v81.518M444.206 180.972v97.896a44.994 44.994 0 0 1-10.82 29.288M251.472 342.547a602.98 602.98 0 0 1-71.091-4.732M109.924 324.619a604.703 604.703 0 0 1-8.802-2.268c-19.697-5.234-33.386-23.103-33.386-43.483v-97.896" style="stroke-width:15;stroke-linecap:round;stroke-linejoin:round;stroke-miterlimit:10;" fill="none" stroke="#000000" stroke-width="15" stroke-linecap="round" stroke-linejoin="round" stroke-miterlimit="10" data-original="#000000"></path><path d="M128.029 308.019V226.5a59.89 59.89 0 0 1 31.765-52.941l52.064-27.767" style="stroke-width:15;stroke-linecap:round;stroke-linejoin:round;stroke-miterlimit:10;" fill="none" stroke="#000000" stroke-width="15" stroke-linecap="round" stroke-linejoin="round" stroke-miterlimit="10" data-original="#000000"></path><path d="M143.029 304.912h0c20.792 0 37.647 16.855 37.647 37.647v30.235c0 16.569-13.431 30-30 30h-15.294c-16.569 0-30-13.431-30-30v-30.235c0-20.792 16.856-37.647 37.647-37.647zM391.474 274.794c104.859 59.756 96.349 188.235-1.44 188.235h-72.362c-97.786 0-106.306-128.476-1.44-188.235M323.735 274.794h-7.529c-8.317 0-15.059-6.742-15.059-15.059s6.742-15.059 15.059-15.059H391.5c8.317 0 15.059 6.742 15.059 15.059s-6.742 15.059-15.059 15.059h-37.647" style="stroke-width:15;stroke-linecap:round;stroke-linejoin:round;stroke-miterlimit:10;" fill="none" stroke="#000000" stroke-width="15" stroke-linecap="round" stroke-linejoin="round" stroke-miterlimit="10" data-original="#000000"></path><path d="M391.335 244.676a647.524 647.524 0 0 0 6.401-22.444c3.518-13.24-7.253-24.983-19.662-24.309-4.69.255-9.314-.922-13.634-2.764a27.043 27.043 0 0 0-21.174 0c-4.32 1.842-8.945 3.019-13.634 2.764-12.408-.674-23.18 11.069-19.662 24.309a642.49 642.49 0 0 0 6.401 22.444M323.735 395.265c0 12.475 13.484 22.588 30.118 22.588s30.118-10.113 30.118-22.588c0-12.475-13.484-22.588-30.118-22.588s-30.118-10.113-30.118-22.588c0-12.475 13.484-22.588 30.118-22.588s30.118 10.113 30.118 22.588M353.853 312.441V327.5M353.853 417.853v15.059" style="stroke-width:15;stroke-linecap:round;stroke-linejoin:round;stroke-miterlimit:10;" fill="none" stroke="#000000" stroke-width="15" stroke-linecap="round" stroke-linejoin="round" stroke-miterlimit="10" data-original="#000000"></path></g></svg>