<svg xmlns="http://www.w3.org/2000/svg" version="1.1" xmlns:xlink="http://www.w3.org/1999/xlink" xmlns:svgjs="http://svgjs.com/svgjs" width="512" height="512" x="0" y="0" viewBox="0 0 508.115 508.115" style="enable-background:new 0 0 512 512" xml:space="preserve" class=""><g><path fill="#99e6fc" d="M240.597 147.484h26.922v270.211h-26.922z" data-original="#99e6fc"></path><path fill="#4f66d0" d="M240.597 417.695v31.219c0 12.901-10.446 23.347-23.336 23.347h-.011c-12.89 0-23.336-10.446-23.336-23.347v-6.634c0-7.137-5.409-13.305-12.531-13.785a13.452 13.452 0 0 0-10.45 3.91 13.428 13.428 0 0 0-3.941 9.52v8.427c0 27.76 22.504 50.263 50.263 50.263 27.76 0 50.263-22.504 50.263-50.263v-32.656h-26.921z" data-original="#4f66d0" class=""></path><path fill="#fed402" d="M166.988 343.34c0 38.76-31.42 70.18-70.18 70.18-5.33 0-10.52-.59-15.5-1.72-31.31-7.05-54.69-35.03-54.69-68.46s23.38-61.41 54.69-68.47a69.995 69.995 0 0 1 15.5-1.72c38.76 0 70.18 31.43 70.18 70.19z" data-original="#fed402"></path><path fill="#fedf30" d="M135.988 343.34c0 33.43-23.38 61.41-54.68 68.46-31.31-7.05-54.69-35.03-54.69-68.46s23.38-61.41 54.69-68.47c31.3 7.06 54.68 35.04 54.68 68.47z" data-original="#fedf30"></path><path fill="#99e6fc" d="M451.048 304.99v76.7c0 12.37-10.03 22.4-22.4 22.4h-61.57c-12.37 0-22.39-10.03-22.39-22.4v-76.7c0-12.37 10.02-22.4 22.39-22.4h61.57c12.37 0 22.4 10.03 22.4 22.4z" data-original="#99e6fc"></path><path fill="#c8effe" d="M420.048 304.99v76.7c0 12.37-10.03 22.4-22.39 22.4h-30.58c-12.37 0-22.39-10.03-22.39-22.4v-76.7c0-12.37 10.02-22.4 22.39-22.4h30.58c12.36 0 22.39 10.03 22.39 22.4z" data-original="#c8effe"></path><path fill="#4f66d0" d="M496.938 250.378c0-33.53-27.18-60.71-60.71-60.71-33.49 0-60.73 27.09-60.73 60.54-.05-19.79-9.58-37.36-24.28-48.4-10.15-7.63-22.76-12.14-36.43-12.14-33.55 0-60.73 27.18-60.73 60.71 0-33.53-27.18-60.71-60.71-60.71a60.53 60.53 0 0 0-36.44 12.13l-.01.01c-14.7 11.05-24.23 28.61-24.28 48.4-.09-33.45-27.24-60.54-60.71-60.54-33.55 0-60.73 27.18-60.73 60.71 0-134.14 108.74-242.88 242.88-242.88s242.88 108.74 242.88 242.88z" data-original="#4f66d0" class=""></path><path fill="#8795de" d="M254.058 7.498c-121.37 59.06-121.44 193.8-121.44 242.71-.09-33.45-27.24-60.54-60.71-60.54-33.55 0-60.73 27.18-60.73 60.71 0-134.14 108.74-242.88 242.88-242.88z" data-original="#8795de"></path><path fill="#8795de" d="M375.498 250.208c-.05-19.79-9.58-37.36-24.28-48.4-10.15-7.63-22.76-12.14-36.43-12.14-33.55 0-60.73 27.18-60.73 60.71V7.498c121.37 59.06 121.44 193.8 121.44 242.71z" data-original="#8795de"></path><path fill="#314dc9" d="M496.938 250.378c0-33.53-27.18-60.71-60.71-60.71C390.812 7.5 254.058 7.498 254.058 7.498c134.14 0 242.88 108.74 242.88 242.88z" data-original="#314dc9"></path><path d="M408.771 53.508a7.5 7.5 0 0 0-9.276 11.788c44.283 34.847 73.936 83.19 85.048 136.979-12.36-12.416-29.458-20.11-48.32-20.11-22.162 0-41.886 10.625-54.357 27.042-1.575-23.041-5.349-50.594-14.409-78.766-15.683-48.768-43.181-86.761-81.931-113.33 30.348 4.081 59.693 14.032 86.215 29.375a7.5 7.5 0 0 0 7.511-12.985C341.365 11.584 298.073 0 254.058 0 187.18 0 124.305 26.044 77.013 73.335 29.722 120.627 3.678 183.502 3.678 250.38a7.5 7.5 0 0 0 15 0c0-29.342 23.876-53.214 53.225-53.214 29.343 0 53.215 23.872 53.215 53.214a7.5 7.5 0 0 0 15 0c0-29.342 23.877-53.214 53.225-53.214 15.796 0 29.999 6.926 39.754 17.891v233.857c0 8.738-7.104 15.847-15.847 15.847-8.732 0-15.836-7.109-15.836-15.847v-6.634c0-27.105-41.922-27.62-41.922-.355v8.426c0 31.851 25.913 57.764 57.764 57.764s57.763-25.913 57.763-57.764V215.06c9.757-10.968 23.964-17.894 39.765-17.894 29.342 0 53.214 23.872 53.214 53.214a7.5 7.5 0 0 0 15 0c0-29.342 23.877-53.214 53.226-53.214 29.342 0 53.214 23.872 53.214 53.214a7.5 7.5 0 0 0 15 0c0-77.272-34.87-149.028-95.667-196.872zm-160.674 201.41a7.479 7.479 0 0 0 11.922 0v155.277h-11.922zm-54.754-72.752c-20.701 0-39.277 9.269-51.8 23.871 1.523-19.228 4.675-41.34 11.215-63.874a7.499 7.499 0 0 0-5.112-9.293 7.499 7.499 0 0 0-9.293 5.112c-7.393 25.473-10.655 50.254-12.095 71.234-12.468-16.422-32.192-27.05-54.355-27.05-18.837 0-35.915 7.671-48.272 20.055 20.191-96.729 99.941-171.856 199.001-185.13-31.282 21.459-55.306 50.424-71.627 86.439a7.5 7.5 0 0 0 13.663 6.191c17.734-39.136 45.253-69.302 81.89-89.833V207.72c-12.328-16.164-33.093-25.554-53.215-25.554zm66.676 268.186c0 23.58-19.184 42.764-42.764 42.764s-42.763-19.184-42.763-42.764v-8.426c0-7.849 11.922-7.665 11.922.355v6.634c0 17.009 13.833 30.847 30.847 30.847 17.003 0 30.836-13.838 30.836-30.847v-23.719h11.922zm54.764-268.186c-20.112 0-40.9 9.39-53.226 25.552V19.877c81.426 45.567 100.558 128.509 105.054 186.204-12.52-14.628-31.109-23.915-51.828-23.915z" fill="#000000" data-original="#000000" class=""></path><path d="M96.806 395.057a7.5 7.5 0 0 0 7.5-7.5v-6.163c11.025-2.273 20.811-11.716 20.222-23.54-.579-11.614-10.341-18.067-20.222-21.807v-14.972c3.456 1.34 5.779 3.163 5.902 3.262a7.5 7.5 0 0 0 9.614-11.513c-.384-.323-6.54-5.4-15.517-7.384v-6.318a7.5 7.5 0 0 0-15 0v6.595c-9.093 2.454-16.204 10.002-16.647 19.613-.529 11.452 7.295 17.022 16.647 20.9v19.005c-2.785-1.165-5.266-2.862-7.194-4.99a7.5 7.5 0 1 0-11.115 10.073c4.708 5.196 11.207 8.897 18.309 10.619v6.622a7.501 7.501 0 0 0 7.501 7.498zm12.671-35.369c-.469 2.631-2.895 4.887-5.171 5.998v-13.379c2.532 1.376 5.772 4.018 5.171 7.381zM89.265 329.91c-2.536-2.003-2.018-5.617.041-7.649 0 1.077-.513 7.442-.041 7.649z" fill="#000000" data-original="#000000" class=""></path><path d="M156.04 381.74a7.501 7.501 0 0 0-10.55 1.092c-11.973 14.739-29.718 23.192-48.684 23.192-34.565 0-62.686-28.121-62.686-62.686s28.121-62.686 62.686-62.686 62.686 28.121 62.686 62.686c0 3.282-.255 6.577-.759 9.793a7.5 7.5 0 0 0 14.819 2.321c.624-3.982.94-8.058.94-12.114 0-42.836-34.85-77.686-77.686-77.686s-77.686 34.85-77.686 77.686 34.85 77.686 77.686 77.686c23.504 0 45.492-10.473 60.326-28.734a7.5 7.5 0 0 0-1.092-10.55zM428.649 275.09h-61.568c-16.485 0-29.896 13.411-29.896 29.896v76.706c0 16.485 13.412 29.896 29.896 29.896h61.568c16.485 0 29.896-13.412 29.896-29.896v-76.706c0-16.485-13.411-29.896-29.896-29.896zm14.896 106.601c0 8.214-6.683 14.896-14.896 14.896h-61.568c-8.214 0-14.896-6.683-14.896-14.896v-76.706c0-8.214 6.683-14.896 14.896-14.896h61.568c8.214 0 14.896 6.682 14.896 14.896z" fill="#000000" data-original="#000000" class=""></path><path d="M376.326 328.401h28.973a7.5 7.5 0 0 0 0-15h-28.973a7.5 7.5 0 0 0 0 15zM418.799 343.899h-42.474a7.5 7.5 0 0 0 0 15h42.474a7.5 7.5 0 0 0 0-15z" fill="#000000" data-original="#000000" class=""></path></g></svg>