<svg xmlns="http://www.w3.org/2000/svg" version="1.1" xmlns:xlink="http://www.w3.org/1999/xlink" xmlns:svgjs="http://svgjs.com/svgjs" width="512" height="512" x="0" y="0" viewBox="0 0 512 512" style="enable-background:new 0 0 512 512" xml:space="preserve" class=""><g><path d="M255.999 503.983 33.779 382.322V129.678l222.22 121.661z" style="" fill="#2858dd" data-original="#2858dd" class=""></path><path d="m255.999 503.983 222.22-121.661V129.678l-222.22 121.661z" style="" fill="#2aa1f2" data-original="#2aa1f2" class=""></path><path d="M441.876 149.575v73.196c0 86.516-47.186 166.144-123.073 207.691l-62.804 34.384v39.137l222.22-121.661V129.678l-36.343 19.897z" style="" fill="#1982e0" data-original="#1982e0" class=""></path><path d="M478.219 129.678 255.999 8.017 33.779 129.678l172.011 94.173 50.209 27.488z" style="" fill="#29abe2" data-original="#29abe2" class=""></path><path d="m442.539 149.212 35.68-19.534L255.999 8.017l-13.113 7.179z" style="" fill="#2aa1f2" data-original="#2aa1f2" class=""></path><path d="M478.219 176.967a8.017 8.017 0 0 0 8.017-8.017v-39.21c.02-2.917-1.611-5.692-4.167-7.094L259.849.985a8.016 8.016 0 0 0-7.699 0L29.93 122.646c-2.557 1.399-4.187 4.179-4.167 7.094v252.582a8.018 8.018 0 0 0 4.167 7.032l222.22 121.661c.138.076.283.132.424.199.134.063.265.132.402.188.195.079.393.141.592.204.132.042.261.092.394.127.223.059.449.097.675.136.112.019.223.049.337.063.341.044.683.068 1.026.068s.685-.024 1.026-.068c.113-.015.224-.044.337-.063.226-.039.452-.077.675-.136.133-.035.262-.085.394-.127.199-.063.397-.125.592-.204.137-.056.268-.124.402-.188.141-.067.286-.123.424-.199l222.22-121.661a8.018 8.018 0 0 0 4.167-7.032V207.656a8.017 8.017 0 0 0-16.034 0v169.915L264.016 490.455V256.09l206.186-112.883v25.744a8.016 8.016 0 0 0 8.017 8.016zm-436.423-33.76 139.572 76.413a8.018 8.018 0 0 0 7.7-14.064L50.473 129.678 255.999 17.156l205.526 112.522L255.999 242.2l-29.987-16.417a8.018 8.018 0 0 0-7.7 14.064l29.67 16.244v234.365L41.796 377.572V143.207z" fill="#000000" data-original="#000000" class=""></path></g></svg>