<svg xmlns="http://www.w3.org/2000/svg" version="1.1" xmlns:xlink="http://www.w3.org/1999/xlink" xmlns:svgjs="http://svgjs.com/svgjs" width="512" height="512" x="0" y="0" viewBox="0 0 682.667 682.667" style="enable-background:new 0 0 512 512" xml:space="preserve" class=""><g><defs><clipPath id="a" clipPathUnits="userSpaceOnUse"><path d="M0 512h512V0H0Z" fill="#000000" data-original="#000000"></path></clipPath></defs><g clip-path="url(#a)" transform="matrix(1.33333 0 0 -1.33333 0 682.667)"><path d="m0 0-13.343-.834-59.5-14.266-63-89.474v-93.344l63.25-77 59-17.375L0-292.708c72.125 9.752 127.728 71.555 127.728 146.354C127.728-71.556 72.125-9.753 0 0" style="fill-opacity:1;fill-rule:nonzero;stroke:none" transform="translate(277.976 382.561)" fill="#dbedff" data-original="#dbedff" class=""></path><path d="M0 0h27.607c.265 0 .526-.015.784-.039v101.693H-.784V-.039C-.525-.015-.264 0 0 0" style="fill-opacity:1;fill-rule:nonzero;stroke:none" transform="translate(38.69 234.307)" fill="#8bcaff" data-original="#8bcaff"></path><path d="M0 0v-40.167c.259.027.52.043.784.043h27.608c.264 0 .525-.016.783-.043V0Z" style="fill-opacity:1;fill-rule:nonzero;stroke:none" transform="translate(460.738 254.977)" fill="#8bcaff" data-original="#8bcaff"></path><path d="M0 0c0 74.798 55.603 136.601 127.727 146.354-6.534.884-13.2 1.35-19.977 1.35C26.176 147.704-39.953 81.575-39.953 0c0-81.574 66.129-147.704 147.703-147.704 6.777 0 13.443.467 19.977 1.35C55.603-136.601 0-74.798 0 0" style="fill-opacity:1;fill-rule:nonzero;stroke:none" transform="translate(150.25 236.207)" fill="#b5dcff" data-original="#b5dcff" class=""></path><path d="m0 0-6.968 149.891a8.373 8.373 0 0 1-8.361 7.927h-27.607a8.372 8.372 0 0 1-8.36-7.927L-58.266 0c-.887-16.698 12.412-30.724 29.134-30.724C-12.412-30.724.888-16.698 0 0" style="fill-opacity:1;fill-rule:nonzero;stroke:none" transform="translate(81.627 78.56)" fill="#ffaa5b" data-original="#ffaa5b" class=""></path><path d="m0 0-2.085-1.881V-15.75l5.56-15.75h26.24c12.353 0 22.366 10.013 22.366 22.366V0z" style="fill-opacity:1;fill-rule:nonzero;stroke:none" transform="translate(45.407 367.462)" fill="#dbedff" data-original="#dbedff" class=""></path><path d="M0 0v8.761h-37.907V-.373c0-12.353 10.014-22.366 22.366-22.366H8.62C3.26-16.683 0-8.724 0 0" style="fill-opacity:1;fill-rule:nonzero;stroke:none" transform="translate(45.407 358.7)" fill="#b5dcff" data-original="#b5dcff" class=""></path><path d="m0 0-6.968 131.023a8.373 8.373 0 0 1-8.361 7.928h-27.607a8.372 8.372 0 0 1-8.36-7.928L-58.266 0c-.887-16.698 12.412-30.724 29.134-30.724C-12.412-30.724.888-16.698 0 0" style="fill-opacity:1;fill-rule:nonzero;stroke:none" transform="translate(504.458 78.56)" fill="#ffaa5b" data-original="#ffaa5b" class=""></path><path d="m0 0 6.969 149.891a8.373 8.373 0 0 0 8.361 7.927H-9.235a8.372 8.372 0 0 1-8.36-7.927L-24.564 0c-.888-16.698 12.412-30.723 29.133-30.723 4.397 0 8.554.978 12.282 2.711C6.402-23.153-.654-12.306 0 0" style="fill-opacity:1;fill-rule:nonzero;stroke:none" transform="translate(47.926 78.56)" fill="#ff9838" data-original="#ff9838"></path><path d="m0 0 6.969 131.024a8.373 8.373 0 0 0 8.361 7.927H-9.235a8.372 8.372 0 0 1-8.36-7.927L-24.564 0c-.888-16.698 12.412-30.723 29.133-30.723 4.397 0 8.554.978 12.282 2.711C6.402-23.153-.654-12.306 0 0" style="fill-opacity:1;fill-rule:nonzero;stroke:none" transform="translate(470.757 78.56)" fill="#ff9838" data-original="#ff9838"></path><path d="m0 0-26.667-19.526-17.833-40.5v-121.5l14.25-7.709 6.942-12 6.109-3.015h11.843a9.223 9.223 0 0 1 9.223 9.223V-4.058c0 1.447-.268 2.811-.751 4.058z" style="fill-opacity:1;fill-rule:nonzero;stroke:none" transform="translate(498.634 457.003)" fill="#dbedff" data-original="#dbedff" class=""></path><path d="M0 0a31.835 31.835 0 0 1-14.693 17.76 9.234 9.234 0 0 0-4.754 8.058v95.169c0 32.282 17.514 61.527 44.918 77.036-2.095 5.413-8.243 8.598-14.167 6.521-35.492-12.442-59.251-45.947-59.251-83.557V25.818a9.234 9.234 0 0 1 4.754-8.058A31.835 31.835 0 0 0-28.5 0c1.237-3.738 4.777-6.227 8.715-6.227h28.5C4.777-6.227 1.237-3.738 0 0" style="fill-opacity:1;fill-rule:nonzero;stroke:none" transform="translate(476.279 258.98)" fill="#b5dcff" data-original="#b5dcff" class=""></path><path d="M0 0h-22.092l-44.5-33.29-29.75-54.917v-54.166l31.948-50.464 44.418-21.536 19.976.42c50.554 9.382 88.837 53.705 88.837 106.976C88.837-53.705 50.554-9.381 0 0" style="fill-opacity:1;fill-rule:nonzero;stroke:none" transform="translate(277.976 343.183)" fill="#b5dcff" data-original="#b5dcff" class=""></path><path d="M0 0c0 53.271 38.283 97.595 88.836 106.977a109.474 109.474 0 0 1-19.977 1.836C8.764 108.813-39.953 60.096-39.953 0c0-60.095 48.717-108.813 108.812-108.813 6.825 0 13.501.635 19.977 1.837C38.283-97.595 0-53.271 0 0" style="fill-opacity:1;fill-rule:nonzero;stroke:none" transform="translate(189.14 236.207)" fill="#8bcaff" data-original="#8bcaff"></path><path d="M0 0c0-81.575-66.129-147.704-147.704-147.704-81.574 0-147.704 66.129-147.704 147.704s66.13 147.704 147.704 147.704C-66.129 147.704 0 81.575 0 0Z" style="stroke-width:15;stroke-linecap:round;stroke-linejoin:round;stroke-miterlimit:10;stroke-dasharray:none;stroke-opacity:1" transform="translate(405.704 236.207)" fill="none" stroke="#000000" stroke-width="15" stroke-linecap="round" stroke-linejoin="round" stroke-miterlimit="10" stroke-dasharray="none" stroke-opacity="" data-original="#000000" class=""></path><path d="m0 0-6.968 149.891a8.373 8.373 0 0 1-8.361 7.927h-27.607a8.372 8.372 0 0 1-8.36-7.927L-58.266 0c-.887-16.698 12.412-30.724 29.134-30.724C-12.412-30.724.888-16.698 0 0z" style="stroke-width:15;stroke-linecap:round;stroke-linejoin:round;stroke-miterlimit:10;stroke-dasharray:none;stroke-opacity:1" transform="translate(81.627 78.56)" fill="none" stroke="#000000" stroke-width="15" stroke-linecap="round" stroke-linejoin="round" stroke-miterlimit="10" stroke-dasharray="none" stroke-opacity="" data-original="#000000" class=""></path><path d="M0 0h27.607c.265 0 .526-.015.784-.039v99.622H-.784V-.039C-.525-.015-.264 0 0 0Z" style="stroke-width:15;stroke-linecap:round;stroke-linejoin:round;stroke-miterlimit:10;stroke-dasharray:none;stroke-opacity:1" transform="translate(38.69 236.378)" fill="none" stroke="#000000" stroke-width="15" stroke-linecap="round" stroke-linejoin="round" stroke-miterlimit="10" stroke-dasharray="none" stroke-opacity="" data-original="#000000" class=""></path><path d="M0 0v-94.842c0-12.353 10.014-22.366 22.366-22.366h45.256c12.353 0 22.366 10.013 22.366 22.366V0" style="stroke-width:15;stroke-linecap:round;stroke-linejoin:round;stroke-miterlimit:10;stroke-dasharray:none;stroke-opacity:1" transform="translate(7.5 453.17)" fill="none" stroke="#000000" stroke-width="15" stroke-linecap="round" stroke-linejoin="round" stroke-miterlimit="10" stroke-dasharray="none" stroke-opacity="" data-original="#000000" class=""></path><path d="M0 0v85.125" style="stroke-width:15;stroke-linecap:round;stroke-linejoin:round;stroke-miterlimit:10;stroke-dasharray:none;stroke-opacity:1" transform="translate(37.907 368.045)" fill="none" stroke="#000000" stroke-width="15" stroke-linecap="round" stroke-linejoin="round" stroke-miterlimit="10" stroke-dasharray="none" stroke-opacity="" data-original="#000000" class=""></path><path d="M0 0v85.125" style="stroke-width:15;stroke-linecap:round;stroke-linejoin:round;stroke-miterlimit:10;stroke-dasharray:none;stroke-opacity:1" transform="translate(67.082 368.045)" fill="none" stroke="#000000" stroke-width="15" stroke-linecap="round" stroke-linejoin="round" stroke-miterlimit="10" stroke-dasharray="none" stroke-opacity="" data-original="#000000" class=""></path><path d="M0 0v-9.134C0-21.486 10.014-31.5 22.366-31.5h45.256c12.353 0 22.366 10.014 22.366 22.366V0Z" style="stroke-width:15;stroke-linecap:round;stroke-linejoin:round;stroke-miterlimit:10;stroke-dasharray:none;stroke-opacity:1" transform="translate(7.5 367.461)" fill="none" stroke="#000000" stroke-width="15" stroke-linecap="round" stroke-linejoin="round" stroke-miterlimit="10" stroke-dasharray="none" stroke-opacity="" data-original="#000000" class=""></path><path d="M0 0c-35.492-12.442-59.251-45.947-59.251-83.557v-95.169a9.234 9.234 0 0 1 4.754-8.058 31.835 31.835 0 0 0 14.693-17.76c1.237-3.738 4.778-6.227 8.716-6.227H5.695a9.223 9.223 0 0 1 9.223 9.223v190.97C14.918-2.854 7.289 2.555 0 0Z" style="stroke-width:15;stroke-linecap:round;stroke-linejoin:round;stroke-miterlimit:10;stroke-dasharray:none;stroke-opacity:1" transform="translate(487.582 463.524)" fill="none" stroke="#000000" stroke-width="15" stroke-linecap="round" stroke-linejoin="round" stroke-miterlimit="10" stroke-dasharray="none" stroke-opacity="" data-original="#000000" class=""></path><path d="M0 0v-35.28c.259.024.52.038.784.038h27.608c.264 0 .525-.014.783-.038V0Z" style="stroke-width:15;stroke-linecap:round;stroke-linejoin:round;stroke-miterlimit:10;stroke-dasharray:none;stroke-opacity:1" transform="translate(460.738 252.753)" fill="none" stroke="#000000" stroke-width="15" stroke-linecap="round" stroke-linejoin="round" stroke-miterlimit="10" stroke-dasharray="none" stroke-opacity="" data-original="#000000" class=""></path><path d="M0 0c52.753 7.524 93.313 52.876 93.313 107.708 0 60.096-48.717 108.813-108.813 108.813-60.095 0-108.812-48.717-108.812-108.813C-124.312 54.27-85.79 9.831-35 .641" style="stroke-width:15;stroke-linecap:round;stroke-linejoin:round;stroke-miterlimit:10;stroke-dasharray:none;stroke-opacity:1" transform="translate(273.5 128.498)" fill="none" stroke="#000000" stroke-width="15" stroke-linecap="round" stroke-linejoin="round" stroke-miterlimit="10" stroke-dasharray="none" stroke-opacity="" data-original="#000000" class=""></path><path d="m0 0-2.658 49.976a8.373 8.373 0 0 1-8.361 7.928h-27.607a8.372 8.372 0 0 1-8.36-7.927l-6.969-131.024c-.888-16.698 12.412-30.724 29.133-30.724 16.72 0 30.02 14.026 29.133 30.724L1.861-35" style="stroke-width:15;stroke-linecap:round;stroke-linejoin:round;stroke-miterlimit:10;stroke-dasharray:none;stroke-opacity:1" transform="translate(500.148 159.607)" fill="none" stroke="#000000" stroke-width="15" stroke-linecap="round" stroke-linejoin="round" stroke-miterlimit="10" stroke-dasharray="none" stroke-opacity="" data-original="#000000" class=""></path></g></g></svg>