<svg xmlns="http://www.w3.org/2000/svg" version="1.1" xmlns:xlink="http://www.w3.org/1999/xlink" xmlns:svgjs="http://svgjs.com/svgjs" width="512" height="512" x="0" y="0" viewBox="0 0 682.667 682.667" style="enable-background:new 0 0 512 512" xml:space="preserve" class=""><g><defs><clipPath id="a" clipPathUnits="userSpaceOnUse"><path d="M0 512h512V0H0Z" fill="#000000" data-original="#000000"></path></clipPath></defs><g clip-path="url(#a)" transform="matrix(1.33333 0 0 -1.33333 0 682.667)"><path d="m0 0 58.667-16.271 118.866-32.967 32.132 115.342c16.505 59.245-18.581 121.211-77.957 137.68-59.405 16.47-121.48-18.51-138.015-77.783l-19.035-68.4C-25.342 15.817-14.262 3.94 0 0" style="fill-opacity:1;fill-rule:evenodd;stroke:none" transform="translate(243.846 296.643)" fill="#eb5468" data-original="#eb5468"></path><path d="m0 0-32.132-115.343 50.456-14.003L50.456-14.003c16.506 59.244-18.58 121.21-77.957 137.679a112.56 112.56 0 0 1-26.08 4.026C-9.432 103.153 14.092 50.599 0 0" style="fill-opacity:1;fill-rule:evenodd;stroke:none" transform="translate(403.055 376.75)" fill="#e5384f" data-original="#e5384f"></path><path d="m0 0-50.456 14.003-32.131-115.342c-8.608-30.927-29.632-55.248-56.224-69.081a110.392 110.392 0 0 0-8.863-17.206 104.926 104.926 0 0 0-6.137-8.76c54.064-6.604 106.679 27.213 121.679 81.044z" style="fill-opacity:1;fill-rule:evenodd;stroke:none" transform="translate(421.379 247.404)" fill="#dddaec" data-original="#dddaec"></path><path d="m0 0-177.533 49.238" style="stroke-width:15;stroke-linecap:round;stroke-linejoin:round;stroke-miterlimit:10;stroke-dasharray:none;stroke-opacity:1" transform="translate(421.379 247.404)" fill="none" stroke="#000000" stroke-width="15" stroke-linecap="round" stroke-linejoin="round" stroke-miterlimit="10" stroke-dasharray="none" stroke-opacity="" data-original="#000000" class=""></path><path d="m0 0 42.644 153.072c16.505 59.245-18.581 121.211-77.957 137.68m-107.958-449.408c54.036-6.605 106.651 27.213 121.651 81.043l12.16 43.682m-25.853 324.683v0c-59.405 16.47-121.48-18.51-138.015-77.783l-19.035-68.401" style="stroke-width:15;stroke-linecap:round;stroke-linejoin:round;stroke-miterlimit:10;stroke-dasharray:none;stroke-opacity:1" transform="translate(410.867 209.675)" fill="none" stroke="#000000" stroke-width="15" stroke-linecap="round" stroke-linejoin="round" stroke-miterlimit="10" stroke-dasharray="none" stroke-opacity="" data-original="#000000" class=""></path><path d="M0 0c-52.388 0-94.832-42.378-94.832-94.649 0-36.88 21.108-68.798 51.961-84.445 35.314-15.704 78.696-15.307 111.68 19.304 16.136 16.951 26.051 39.912 26.051 65.141 0 2.38-.085 4.733-.255 7.058-1.648 22.223-10.966 42.293-25.342 57.6C51.961-11.537 27.33 0 0 0" style="fill-opacity:1;fill-rule:evenodd;stroke:none" transform="translate(149.241 384.234)" fill="#ffd772" data-original="#ffd772"></path><path d="m0 0 110.146-21.799c10.397 51.988-17.473 105.563-68.611 125.888l-2.216.85c-11.108 4.139-22.5 6.435-33.779 6.974-28.495 1.417-56.365-8.164-77.9-26.278-8.722-7.285-16.364-15.988-22.614-25.937z" style="fill-opacity:1;fill-rule:evenodd;stroke:none" transform="translate(178.73 119.504)" fill="#b1e4f9" data-original="#b1e4f9"></path><path d="m0 0-95.088 47.424-110.003 34.044c-10.341-51.931 17.529-105.478 68.61-125.774 13.58-5.386 27.614-7.965 41.393-7.965h.199c34.461.028 67.473 16.016 88.752 43.512A104.91 104.91 0 0 1 0 0" style="fill-opacity:1;fill-rule:evenodd;stroke:none" transform="translate(273.705 59.778)" fill="#b1e4f9" data-original="#b1e4f9"></path><path d="M0 0c21.733-23.187 49.632-107.746-4.687-150.294 5.397.539 10.852.68 16.335.397 11.279-.539 22.671-2.835 33.779-6.973 16.137 16.951 26.052 39.912 26.052 65.141 0 2.38-.085 4.733-.255 7.058-1.648 22.223-10.967 42.293-25.342 57.6C33.666-14.06 17.841-4.507 0 0" style="fill-opacity:1;fill-rule:evenodd;stroke:none" transform="translate(172.623 381.314)" fill="#fbba58" data-original="#fbba58"></path><path d="m0 0-52.985 21.062a157.733 157.733 0 0 0-3.551-10.545c-9.631-25.739-25.228-47.51-44.632-62.618 2.017-.114 4.063-.17 6.08-.17h.199c34.461.028 67.473 16.016 88.752 43.512A104.91 104.91 0 0 1 0 0" style="fill-opacity:1;fill-rule:evenodd;stroke:none" transform="translate(273.705 59.778)" fill="#75cef8" data-original="#75cef8"></path><path d="m0 0 61.138-24.293C71.536 27.695 43.666 81.27-7.472 101.595l-2.216.85a110.376 110.376 0 0 1-21.79 5.726 143.97 143.97 0 0 0 10.455-15.902C-7.614 68.656.227 39.969.227 9.043.227 6.01.17 3.005 0 0" style="fill-opacity:1;fill-rule:evenodd;stroke:none" transform="translate(227.738 121.999)" fill="#75cef8" data-original="#75cef8"></path><path d="m0 0-118.271 46.999-86.848 34.498a112.095 112.095 0 0 1-9.29-18.227 114.852 114.852 0 0 1-5.853-19.729L-94.179-6.548l79.008-31.38a110.91 110.91 0 0 1 9.318 18.312A113.86 113.86 0 0 1 0 0" style="fill-opacity:1;fill-rule:evenodd;stroke:none" transform="translate(288.876 97.706)" fill="#75cef8" data-original="#75cef8"></path><path d="m0 0 52.985-21.062A111.066 111.066 0 0 1 62.303-2.75a113.86 113.86 0 0 1 5.853 19.616L7.018 41.159C6.307 26.788 3.893 12.955 0 0" style="fill-opacity:1;fill-rule:evenodd;stroke:none" transform="translate(220.72 80.84)" fill="#60b7ff" data-original="#60b7ff"></path><path d="M0 0c-57.586 22.876-122.872-5.159-145.799-62.618-22.927-57.487 5.171-122.628 62.757-145.503 57.587-22.876 122.873 5.159 145.8 62.618C85.713-88.017 57.615-22.904 0 0Z" style="stroke-width:15;stroke-linecap:round;stroke-linejoin:round;stroke-miterlimit:10;stroke-dasharray:none;stroke-opacity:1" transform="translate(220.266 223.593)" fill="none" stroke="#000000" stroke-width="15" stroke-linecap="round" stroke-linejoin="round" stroke-miterlimit="10" stroke-dasharray="none" stroke-opacity="" data-original="#000000" class=""></path><path d="m0 0 205.091-81.468m15.171 37.927L15.143 37.956" style="stroke-width:15;stroke-linecap:round;stroke-linejoin:round;stroke-miterlimit:10;stroke-dasharray:none;stroke-opacity:1" transform="translate(68.614 141.246)" fill="none" stroke="#000000" stroke-width="15" stroke-linecap="round" stroke-linejoin="round" stroke-miterlimit="10" stroke-dasharray="none" stroke-opacity="" data-original="#000000" class=""></path><path d="M0 0c16.137 16.951 26.052 39.884 26.052 65.141 0 52.271-42.473 94.649-94.861 94.649-23.608 0-45.2-8.617-61.819-22.876m-22.415-28.233c-6.762-13.039-10.598-27.836-10.598-43.54 0-36.88 21.109-68.798 51.962-84.445" style="stroke-width:15;stroke-linecap:round;stroke-linejoin:round;stroke-miterlimit:10;stroke-dasharray:none;stroke-opacity:1" transform="translate(218.05 224.444)" fill="none" stroke="#000000" stroke-width="15" stroke-linecap="round" stroke-linejoin="round" stroke-miterlimit="10" stroke-dasharray="none" stroke-opacity="" data-original="#000000" class=""></path><path d="M0 0h-.199" style="stroke-width:15;stroke-linecap:round;stroke-linejoin:round;stroke-miterlimit:10;stroke-dasharray:none;stroke-opacity:1" transform="translate(173.446 298.825)" fill="none" stroke="#000000" stroke-width="15" stroke-linecap="round" stroke-linejoin="round" stroke-miterlimit="10" stroke-dasharray="none" stroke-opacity="" data-original="#000000" class=""></path><path d="M0 0h-.199" style="stroke-width:15;stroke-linecap:round;stroke-linejoin:round;stroke-miterlimit:10;stroke-dasharray:none;stroke-opacity:1" transform="translate(152.423 258.035)" fill="none" stroke="#000000" stroke-width="15" stroke-linecap="round" stroke-linejoin="round" stroke-miterlimit="10" stroke-dasharray="none" stroke-opacity="" data-original="#000000" class=""></path><path d="M0 0h-.228" style="stroke-width:15;stroke-linecap:round;stroke-linejoin:round;stroke-miterlimit:10;stroke-dasharray:none;stroke-opacity:1" transform="translate(112.166 287.969)" fill="none" stroke="#000000" stroke-width="15" stroke-linecap="round" stroke-linejoin="round" stroke-miterlimit="10" stroke-dasharray="none" stroke-opacity="" data-original="#000000" class=""></path><path d="M0 0h-.199" style="stroke-width:15;stroke-linecap:round;stroke-linejoin:round;stroke-miterlimit:10;stroke-dasharray:none;stroke-opacity:1" transform="translate(139.639 336.696)" fill="none" stroke="#000000" stroke-width="15" stroke-linecap="round" stroke-linejoin="round" stroke-miterlimit="10" stroke-dasharray="none" stroke-opacity="" data-original="#000000" class=""></path></g></g></svg>