<svg xmlns="http://www.w3.org/2000/svg" version="1.1" xmlns:xlink="http://www.w3.org/1999/xlink" xmlns:svgjs="http://svgjs.com/svgjs" width="512" height="512" x="0" y="0" viewBox="0 0 511.91 511.91" style="enable-background:new 0 0 512 512" xml:space="preserve" class=""><g><path d="M61.032 23.66v442.37l329.319 38.47 5.993-.09c21.196 0 38.379-17.183 38.379-38.379V23.66c0-8.925-7.235-16.16-16.16-16.16H77.191c-8.924 0-16.159 7.235-16.159 16.16z" style="" fill="#dff6fd" data-original="#dff6fd"></path><path d="M418.564 7.5h-30.299c8.925 0 16.16 7.235 16.16 16.16v442.37c0 17.503-11.721 32.259-27.739 36.873l13.666 1.596 5.993-.09c21.196 0 38.379-17.183 38.379-38.379V23.66c0-8.925-7.235-16.16-16.16-16.16z" style="" fill="#c8effe" data-original="#c8effe"></path><path d="M52.952 504.41c-21.196 0-38.379-17.183-38.379-38.379v-22.22c0-5.578 4.522-10.1 10.1-10.1h323.193c5.578 0 10.1 4.522 10.1 10.1v22.22c0 21.196 17.183 38.379 38.379 38.379H52.952z" style="" fill="#99e6fc" data-original="#99e6fc"></path><path d="M129.71 167.077h236.335a8.08 8.08 0 0 0 8.08-8.08v-14.14a8.08 8.08 0 0 0-8.08-8.08H129.71a8.08 8.08 0 0 0-8.08 8.08v14.14a8.08 8.08 0 0 0 8.08 8.08z" style="" fill="#7a6d79" data-original="#7a6d79"></path><path d="M106.481 207.476H138.8v32.319h-32.319zM106.481 280.194H138.8v32.319h-32.319zM106.481 352.913H138.8v32.319h-32.319z" style="" fill="#a2e62e" data-original="#a2e62e"></path><circle cx="396.344" cy="296.354" r="100.998" style="" fill="#ffd15b" data-original="#ffd15b"></circle><path d="M455.539 214.521c12.053 16.634 19.164 37.082 19.164 59.195 0 55.78-45.218 100.998-100.998 100.998-22.112 0-42.561-7.112-59.195-19.165 18.352 25.326 48.166 41.803 81.833 41.803 55.78 0 100.998-45.218 100.998-100.998.001-33.667-16.476-63.482-41.802-81.833z" style="" fill="#ffc344" data-original="#ffc344"></path><path d="M434.727 202.92V101.97M61.027 309.21V23.66c0-8.92 7.24-16.16 16.16-16.16h341.38c8.92 0 16.16 7.24 16.16 16.16v43.31M61.027 433.71v-89.5M434.727 389.79v76.24c0 21.2-17.19 38.38-38.38 38.38M52.952 504.41c-21.196 0-38.379-17.183-38.379-38.379v-22.22c0-5.578 4.522-10.1 10.1-10.1h323.193c5.578 0 10.1 4.522 10.1 10.1v22.22c0 21.196 17.183 38.379 38.379 38.379H52.952z" style="stroke-width:15;stroke-linecap:round;stroke-linejoin:round;stroke-miterlimit:10;" fill="none" stroke="#000000" stroke-width="15" stroke-linecap="round" stroke-linejoin="round" stroke-miterlimit="10" data-original="#000000" class=""></path><path d="M129.71 167.077h236.335a8.08 8.08 0 0 0 8.08-8.08v-14.14a8.08 8.08 0 0 0-8.08-8.08H129.71a8.08 8.08 0 0 0-8.08 8.08v14.14a8.08 8.08 0 0 0 8.08 8.08zM260.622 207.476h-81.423M260.622 239.795h-81.423M217.996 96.378 236.2 48.582c.372-.909 1.659-.911 2.033-.002l18.038 47.798M223.673 84.474h27.013M289.358 47.899l34.103 48.479M321.061 47.899l-34.152 48.479M172.294 47.899h26.773M185.626 49.447v46.931M106.481 207.476H138.8v32.319h-32.319zM260.622 280.194h-81.423M260.622 312.514h-81.423M106.481 280.194H138.8v32.319h-32.319zM260.622 352.913h-81.423M260.622 385.232h-81.423M106.481 352.913H138.8v32.319h-32.319zM486.717 341.48c6.8-13.58 10.62-28.91 10.62-45.13 0-55.78-45.21-100.99-100.99-100.99s-101 45.21-101 100.99 45.22 101 101 101c26.99 0 51.51-10.59 69.63-27.84" style="stroke-width:15;stroke-linecap:round;stroke-linejoin:round;stroke-miterlimit:10;" fill="none" stroke="#000000" stroke-width="15" stroke-linecap="round" stroke-linejoin="round" stroke-miterlimit="10" data-original="#000000" class=""></path><path d="M396.345 240.805c-30.63 0-55.549 24.919-55.549 55.549s24.919 55.549 55.549 55.549 55.549-24.919 55.549-55.549v-10.445" style="stroke-width:15;stroke-linecap:round;stroke-linejoin:round;stroke-miterlimit:10;" fill="none" stroke="#000000" stroke-width="15" stroke-linecap="round" stroke-linejoin="round" stroke-miterlimit="10" data-original="#000000" class=""></path><path d="m466.033 295.405-14.14-13.287-14.139 13.287" style="stroke-width:15;stroke-linecap:round;stroke-linejoin:round;stroke-miterlimit:10;" fill="none" stroke="#000000" stroke-width="15" stroke-linecap="round" stroke-linejoin="round" stroke-miterlimit="10" data-original="#000000" class=""></path></g></svg>