<svg xmlns="http://www.w3.org/2000/svg" version="1.1" xmlns:xlink="http://www.w3.org/1999/xlink" xmlns:svgjs="http://svgjs.com/svgjs" width="512" height="512" x="0" y="0" viewBox="0 0 256 256" style="enable-background:new 0 0 512 512" xml:space="preserve" class=""><g><path fill="#72c2e9" d="M91.143 79.301c0 16.085-13.039 29.124-29.124 29.124s-29.124-13.04-29.124-29.124c0-13.719 21.187-49.522 27.419-59.757a1.993 1.993 0 0 1 3.409 0c6.233 10.235 27.42 46.038 27.42 59.757z" data-original="#72c2e9"></path><path fill="#fc5d3d" d="M91.972 210.776c0 16.558-13.411 29.969-29.953 29.969s-29.953-13.411-29.953-29.969c0-5.762 3.633-15.333 8.382-25.342.67-1.413 2.635-1.54 3.486-.228l9.023 13.922 7.688-44.73c.472-2.747 4.107-3.421 5.535-1.026 8.239 13.819 25.792 44.745 25.792 57.404z" data-original="#fc5d3d"></path><path fill="#f0c020" d="M217.926 54.173h-17.289l4.434-36.523a2 2 0 0 0-1.985-2.241h-30.191a2 2 0 0 0-1.985 1.759l-6.437 53.02a2 2 0 0 0 1.985 2.241h11.867a2 2 0 0 1 1.985 2.241l-4.398 36.247c-.248 2.047 2.389 3.085 3.602 1.418l40.028-54.984c.963-1.323.019-3.178-1.616-3.178z" data-original="#f0c020"></path><path fill="#fc5d3d" d="M208.044 228.695c-4.01-4.011-9.343-6.22-15.016-6.22s-11.006 2.209-15.016 6.22a5.565 5.565 0 0 1-7.87-7.868c6.113-6.114 14.241-9.48 22.886-9.48s16.773 3.367 22.886 9.48a5.565 5.565 0 0 1-7.87 7.868z" data-original="#fc5d3d"></path><path fill="#f0c020" d="M221.465 207.67c-15.681-15.679-41.195-15.679-56.876 0a5.563 5.563 0 1 1-7.868-7.868c20.019-20.019 52.592-20.019 72.611 0a5.563 5.563 0 0 1 0 7.868 5.56 5.56 0 0 1-7.867 0z" data-original="#f0c020"></path><path fill="#72c2e9" d="M233.853 184.897c-22.512-22.51-59.138-22.51-81.651 0a5.563 5.563 0 1 1-7.868-7.868c26.848-26.85 70.538-26.85 97.386 0a5.563 5.563 0 1 1-7.867 7.868z" data-original="#72c2e9"></path><path fill="#c5e5fe" d="M62.019 98.713a2.5 2.5 0 1 1 0-5c7.947 0 14.412-6.465 14.412-14.412.001-2.81-2.994-11.559-11.4-27.688a2.498 2.498 0 0 1 1.062-3.372 2.499 2.499 0 0 1 3.372 1.062c5.46 10.475 11.968 24.183 11.967 29.999-.001 10.703-8.709 19.411-19.413 19.411zm.487-54.564a2.499 2.499 0 0 1-2.192-1.295l-.479-.863a2.499 2.499 0 1 1 4.365-2.437l.495.891a2.5 2.5 0 0 1-2.189 3.704z" data-original="#c5e5fe"></path><path fill="#f8e5b0" d="M179.716 61.184a2.499 2.499 0 0 1-2.485-2.801l.361-2.979a2.5 2.5 0 0 1 4.963.601l-.361 2.979a2.5 2.5 0 0 1-2.478 2.2zm1.567-12.906a2.5 2.5 0 0 1-2.485-2.802l2.019-16.625a2.494 2.494 0 0 1 2.783-2.18 2.5 2.5 0 0 1 2.18 2.783l-2.019 16.625a2.499 2.499 0 0 1-2.478 2.199z" data-original="#f8e5b0"></path><path fill="#ffcbc3" d="M62.029 230.684c-.497 0-.997-.018-1.5-.056a2.502 2.502 0 0 1-2.306-2.681c.104-1.378 1.322-2.418 2.681-2.306 8.708.658 16.006-6.272 16.006-14.865 0-1.186-.574-5.186-5.895-16.691a2.5 2.5 0 1 1 4.539-2.097c4.217 9.121 6.355 15.442 6.355 18.789.001 10.976-8.918 19.907-19.88 19.907zm6.876-44.138a2.502 2.502 0 0 1-2.228-1.362l-.455-.891a2.5 2.5 0 1 1 4.451-2.277l.455.891a2.499 2.499 0 0 1-2.223 3.639z" data-original="#ffcbc3"></path><path d="M33.22 84.319c-1.132.173-2.58-.756-2.71-2.27a2.501 2.501 0 0 1 2.28-2.71c1.34-.11 2.58.91 2.7 2.26v.021c.119 1.37-.9 2.58-2.27 2.699z" fill="#000000" data-original="#000000"></path><path d="M33.27 92.49a2.489 2.489 0 0 1 1.23-3.311c1.22-.56 2.76.01 3.31 1.22 4.34 9.431 13.84 15.521 24.2 15.521 14.66-.021 26.61-11.97 26.63-26.62.094-12.452-20.179-47.119-26.62-57.75-3.55 5.83-20.84 34.73-25.46 51.09-.37 1.29-1.79 2.09-3.09 1.72a2.514 2.514 0 0 1-1.72-3.09c4.46-15.57 18.47-39.9 26.43-53.03 1.707-2.839 5.901-2.922 7.68 0 7.494 12.335 27.703 46.735 27.78 61.06 0 17.475-14.134 31.62-31.62 31.62a31.583 31.583 0 0 1-28.75-18.43z" fill="#000000" data-original="#000000"></path><path d="M255.375 128a2.5 2.5 0 0 1-2.5 2.5H130.5v122.375a2.5 2.5 0 1 1-5 0V130.5H3.125a2.5 2.5 0 1 1 0-5H125.5V3.125a2.5 2.5 0 1 1 5 0V125.5h122.375a2.5 2.5 0 0 1 2.5 2.5z" fill="#000000" data-original="#000000"></path><path d="m173.431 110.614 4.329-35.687h-11.303a4.501 4.501 0 0 1-4.467-5.041l6.437-53.021a4.503 4.503 0 0 1 4.467-3.958h30.191a4.502 4.502 0 0 1 4.467 5.042l-4.093 33.723h14.467c3.675 0 5.802 4.175 3.639 7.148l-40.028 54.984c-2.732 3.75-8.668 1.416-8.106-3.19zm4.893-40.686a4.502 4.502 0 0 1 4.467 5.042l-4.165 34.338 38.317-52.635h-16.307a2.5 2.5 0 0 1-2.481-2.801l4.365-35.964h-29.184l-6.315 52.02zM206.276 230.463c-7.321-7.321-19.175-7.326-26.496 0-3.144 3.142-8.259 3.144-11.404.002-3.146-3.146-3.146-8.262-.002-11.405 13.623-13.627 35.682-13.629 49.307 0 3.145 3.144 3.144 8.26-.001 11.404-3.141 3.142-8.258 3.144-11.404-.001zm3.536-3.535a3.068 3.068 0 0 0 4.333.001 3.069 3.069 0 0 0 .001-4.334c-11.67-11.672-30.564-11.675-42.236 0a3.069 3.069 0 0 0 .001 4.334 3.072 3.072 0 0 0 4.334-.002c9.274-9.278 24.291-9.277 33.567.001z" fill="#000000" data-original="#000000"></path><path d="M219.698 209.438c-14.707-14.702-38.636-14.704-53.341 0a8.006 8.006 0 0 1-5.702 2.362c1 0-2.871.473-5.702-2.363a8.056 8.056 0 0 1 .001-11.402c20.995-20.991 55.153-20.992 76.146.001a8.056 8.056 0 0 1-.001 11.403 8.057 8.057 0 0 1-11.401-.001zm3.536-3.535c1.156 1.156 3.174 1.156 4.33 0a3.06 3.06 0 0 0 .002-4.332c-19.045-19.045-50.032-19.044-69.077-.001a3.06 3.06 0 0 0 0 4.331 3.06 3.06 0 0 0 4.332.002c16.656-16.653 43.756-16.655 60.413 0zM208.229 161.14a2.499 2.499 0 0 1-1.859-3c.31-1.32 1.66-2.18 3-1.87a2.51 2.51 0 0 1 1.87 3.011c-.336 1.405-1.754 2.187-3.011 1.859z" fill="#000000" data-original="#000000"></path><path d="M146.102 178.798a3.059 3.059 0 0 0 0 4.33c1.158 1.16 3.176 1.158 4.332.002 23.486-23.484 61.702-23.485 85.187-.001 1.158 1.158 3.176 1.157 4.332.001a3.056 3.056 0 0 0 .012-4.318c-.004-.004-.01-.007-.014-.012-6.48-6.48-14.051-11.46-22.521-14.79a2.5 2.5 0 0 1-1.42-3.24c.481-1.227 1.85-1.931 3.25-1.42 9.11 3.59 17.26 8.94 24.23 15.91.01.01.017.022.027.033a8.056 8.056 0 0 1-.029 11.373 8.057 8.057 0 0 1-11.404-.002c-21.536-21.531-56.578-21.53-78.114.001a8.055 8.055 0 0 1-11.404-.001 8.05 8.05 0 0 1-.069-11.325c.023-.025.039-.054.063-.079 14.732-14.732 35.174-22.394 56.59-20.61a2.511 2.511 0 0 1 2.28 2.7c-.12 1.36-1.35 2.38-2.71 2.28-19.487-1.66-38.59 5.14-52.61 19.16-.001 0-.003.005-.008.008zM79.609 177.41c1.21-.61 2.75-.101 3.36 1.1.62 1.23.12 2.74-1.11 3.36a2.49 2.49 0 0 1-3.35-1.101c-.649-1.258-.104-2.756 1.1-3.359z" fill="#000000" data-original="#000000"></path><path d="M78.29 169.58c.66 1.21.2 2.729-1.01 3.39a2.505 2.505 0 0 1-3.391-1.01c-3.75-6.92-7.43-13.23-9.859-17.311l-.001-.003a.497.497 0 0 0-.919.176l-7.688 44.729c-.385 2.234-3.325 2.846-4.562.936l-8.536-13.169c-6.399 13.632-7.757 20.275-7.757 23.458 0 15.134 12.295 27.447 27.415 27.468.013 0 .025-.004.039-.004 15.11-.021 27.42-12.341 27.45-27.46.05-4.04-2.38-11.721-6.67-21.08a2.508 2.508 0 0 1 1.24-3.32c1.229-.55 2.76.03 3.31 1.25 3.29 7.3 7.061 16.53 7.12 23.15 0 18.029-14.582 32.47-32.45 32.47-.022 0-.042-.006-.064-.006-17.866-.034-32.389-14.585-32.389-32.467 0-5.467 2.901-14.354 8.623-26.414 1.5-3.164 5.922-3.479 7.842-.516l5.545 8.555 6.605-38.427c.871-5.063 7.576-6.243 10.148-1.885 2.449 4.12 6.169 10.49 9.959 17.49z" fill="#000000" data-original="#000000"></path></g></svg>